<?xml version="1.0" encoding="UTF-8"?>
<svg version="1.1" xmlns="http://www.w3.org/2000/svg" width="50" height="50">
<path d="M0 0 C0.66 0 1.32 0 2 0 C2.66 1.98 3.32 3.96 4 6 C4.33 5.34 4.66 4.68 5 4 C6.97888961 3.27306096 8.97954558 2.60183749 11 2 C11.19555932 4.72880461 11.38170447 7.45771069 11.5625 10.1875 C11.61857422 10.95642578 11.67464844 11.72535156 11.73242188 12.51757812 C11.99141557 16.54061353 12.06573607 20.06072372 11 24 C9.35 24 7.7 24 6 24 C6.33 25.32 6.66 26.64 7 28 C8.65 28.33 10.3 28.66 12 29 C12.49462092 33.15481571 12.24199869 34.66389071 9.75 38.125 C8.1105583 39.83896177 6.45056837 41.53416964 4.75 43.1875 C2.76670351 44.98079696 2.76670351 44.98079696 2 48 C1.34 48 0.68 48 0 48 C-0.2784375 46.948125 -0.2784375 46.948125 -0.5625 45.875 C-2.02662595 42.9467481 -3.05987051 41.9795389 -5.5625 40 C-8.89039101 37.31421244 -8.89039101 37.31421244 -9.9375 34.3125 C-9.9853462 32.54219057 -10 30.77095588 -10 29 C-8.35 28.67 -6.7 28.34 -5 28 C-5 27.34 -5 26.68 -5 26 C-4.34 26 -3.68 26 -3 26 C-3 25.34 -3 24.68 -3 24 C-4.98 24 -6.96 24 -9 24 C-10.26798493 19.31315199 -9.91105063 14.96705063 -9.5625 10.1875 C-9.51029297 9.39923828 -9.45808594 8.61097656 -9.40429688 7.79882812 C-9.27540731 5.86548471 -9.13850506 3.93267836 -9 2 C-3.25 3.875 -3.25 3.875 -1 5 C-0.67 3.35 -0.34 1.7 0 0 Z " fill="#FFFFFF" transform="translate(24,1)"/>
</svg>
