<?xml version="1.0" encoding="UTF-8"?>
<svg version="1.1" xmlns="http://www.w3.org/2000/svg" width="512" height="512">
<path d="M0 0 C1.65 0 3.3 0 5 0 C5.495 2.475 5.495 2.475 6 5 C6.66 5 7.32 5 8 5 C7.93756104 6.07072754 7.87512207 7.14145508 7.81079102 8.24462891 C7.81985445 14.09864693 9.46888248 19.48202221 11.02734375 25.0859375 C11.33571671 26.22406891 11.64408966 27.36220032 11.96180725 28.53482056 C12.94431047 32.15085083 13.94096074 35.7628159 14.9375 39.375 C15.60439192 41.82658471 16.27041692 44.27840542 16.93554688 46.73046875 C18.76097711 53.43051045 18.76097711 53.43051045 20.60131836 60.12646484 C20.84780624 61.0216684 21.09429413 61.91687195 21.34825134 62.83920288 C21.9393967 65.02035474 21.9393967 65.02035474 23 67 C23.66 65.35 24.32 63.7 25 62 C26.859375 62.21484375 26.859375 62.21484375 29 63 C30.265625 65.06640625 30.265625 65.06640625 31.25 67.5625 C31.58515625 68.38878906 31.9203125 69.21507813 32.265625 70.06640625 C32.50796875 70.70449219 32.7503125 71.34257813 33 72 C36.89719336 64.58306543 40.02168049 56.87190187 43.1875 49.125 C44.00549179 47.1304381 44.82433671 45.13623036 45.64387512 43.14230347 C46.380274 41.34957842 47.11439307 39.55591739 47.84838867 37.76220703 C48.51869457 36.15443918 49.22099712 34.55800577 50 33 C50.99 33 51.98 33 53 33 C54.61898527 40.62989868 55.8510374 48.2855368 57 56 C58.65 49.73 60.3 43.46 62 37 C63.32 37 64.64 37 66 37 C68.64 45.58 71.28 54.16 74 63 C76.69537789 55.81232563 79.07538501 48.64723855 81.3125 41.3125 C81.69728516 40.10271484 82.08207031 38.89292969 82.47851562 37.64648438 C82.83236328 36.48052734 83.18621094 35.31457031 83.55078125 34.11328125 C83.87731689 33.05923096 84.20385254 32.00518066 84.5402832 30.91918945 C85.06650334 27.57770558 84.52883777 25.96903239 83 23 C84.875 22.375 84.875 22.375 87 22 C89 24 89 24 89.06335449 26.05871582 C88.38812788 31.97790257 87.24413967 37.51693917 85.53125 43.21875 C85.29088013 44.04330688 85.05051025 44.86786377 84.80285645 45.71740723 C84.0434584 48.31410233 83.27173046 50.90694699 82.5 53.5 C81.9823059 55.26800476 81.46537229 57.03623238 80.94921875 58.8046875 C77.18910274 71.62179453 77.18910274 71.62179453 76 74 C74.68 73.67 73.36 73.34 72 73 C72.99 77.95 72.99 77.95 74 83 C75.19184296 79.33469594 76.37920888 75.66806786 77.5625 72 C77.92239014 70.88689453 78.28228027 69.77378906 78.65307617 68.62695312 C80.52543524 62.78594884 82.32709985 56.93717598 83.984375 51.03125 C84.2930249 49.93425781 84.6016748 48.83726563 84.91967773 47.70703125 C85.50825335 45.59285864 86.08615533 43.4756813 86.65258789 41.35546875 C86.9180542 40.40285156 87.18352051 39.45023438 87.45703125 38.46875 C87.68366455 37.62763672 87.91029785 36.78652344 88.14379883 35.91992188 C88.42634521 35.28634766 88.7088916 34.65277344 89 34 C89.99 33.67 90.98 33.34 92 33 C91.938125 31.741875 91.87625 30.48375 91.8125 29.1875 C91.8125 25.28571429 91.8125 25.28571429 93.3125 23 C95 22 95 22 98 22 C97.83789032 22.53669312 97.67578064 23.07338623 97.50875854 23.62634277 C95.59940461 32.53459959 97.17518801 42.39398977 98.2421875 51.34375 C98.37062042 52.47413696 98.49905334 53.60452393 98.63137817 54.76916504 C99.0390802 58.34693444 99.4565426 61.92347416 99.875 65.5 C100.28303728 69.03599962 100.68894609 72.57223254 101.09327698 76.10865784 C101.3581216 78.42247974 101.62498115 80.73607195 101.89390564 83.04942322 C102.50818288 88.39017125 103.08163627 93.72675687 103.52954102 99.08422852 C103.60991608 100.02991699 103.69029114 100.97560547 103.77310181 101.94995117 C103.9155788 103.68159169 104.04814535 105.414095 104.16781616 107.14746094 C104.63405648 112.82332764 106.05928413 117.6683425 108.1875 122.9375 C110.79950901 129.55889229 111.19720031 134.24639593 110.23828125 141.42578125 C109.78776373 148.18354412 110.94646474 156.89292949 114 163 C114.375 166.3125 114.375 166.3125 114 170 C111.92972534 172.46194825 109.81623607 174.35153532 107.30859375 176.34375 C105.77524955 177.9404931 105.77524955 177.9404931 105.9609375 180.234375 C106.09757813 181.06453125 106.23421875 181.8946875 106.375 182.75 C107.30769074 189.80155196 106.50941292 196.50437223 102.98828125 202.8125 C101.78065417 205.48550856 101.49069218 207.90562029 101.125 210.8125 C100.02536842 217.76555507 98.2471365 221.70179221 93.25 226.8125 C86.50900161 231.34971045 78.92730088 231.83496973 71 231 C64.89128496 229.76763586 58.90742752 227.96914251 53 226 C47.95109152 241.50140083 48.20209052 255.89353448 55 271 C58.47751398 277.52279458 62.10132943 282.33065987 69.38427734 284.8125 C72.16184396 285.59488444 74.94787487 286.31082868 77.75 287 C101.01956522 292.8173913 101.01956522 292.8173913 107.8125 301.25 C112.68053728 312.52334948 111.95793732 324.56282881 108 336 C104.04672858 345.55641762 98.91988341 353.30481192 92 361 C91.20851563 361.88816406 90.41703125 362.77632813 89.6015625 363.69140625 C88.07114281 365.39723949 86.53371812 367.09682247 84.98828125 368.7890625 C83.4039618 370.55080083 81.90609002 372.33088787 80.4375 374.1875 C77.25702565 377.85727809 73.70901736 380.87630261 70 384 C69.00355469 384.84949219 68.00710938 385.69898438 66.98046875 386.57421875 C61.86937682 390.92572 56.73081377 395.22994031 51.5 399.4375 C45.61577426 404.23395766 40.0452293 409.33114995 34.53710938 414.55078125 C33.11548541 415.89111795 31.67567483 417.21209422 30.234375 418.53125 C14.84239975 433.07336159 9.52332407 452.25289449 4 472 C2.68 472 1.36 472 0 472 C-0.21914062 470.94683594 -0.43828125 469.89367187 -0.6640625 468.80859375 C-2.84716664 458.72204032 -5.74896179 449.4038118 -10 440 C-10.42796875 439.03578125 -10.8559375 438.0715625 -11.296875 437.078125 C-20.00347659 419.35763 -38.83396039 405.02823831 -54 393 C-75.12179604 376.09644977 -101.29728491 354.25246527 -106 326 C-106.84773715 316.35440537 -106.99171087 306.04259737 -100.515625 298.203125 C-91.54209057 290.50017952 -77.3881584 287.53446672 -66.11572266 284.91186523 C-59.82653966 283.3335126 -55.95702669 280.86092573 -52.20703125 275.37890625 C-46.10475001 263.05469119 -42.19789523 248.32290547 -45.90234375 234.67578125 C-46.84267051 232.0622752 -47.84559571 229.52525938 -49 227 C-52.58841478 227.6707926 -56.05025656 228.57333756 -59.5625 229.5625 C-68.48457716 231.7875389 -78.7161137 232.79259322 -87 228 C-94.23252461 221.59880006 -96.11240969 215.28029908 -97.33984375 205.9375 C-98.04990011 202.77795927 -99.34120743 200.75116817 -101 198 C-101.2578125 195.796875 -101.2578125 195.796875 -101.125 193.75 C-101.08375 192.5125 -101.0425 191.275 -101 190 C-101.33 189.67 -101.66 189.34 -102 189 C-101.69532213 187.29025428 -101.38114588 185.58219765 -101.0625 183.875 C-100.63065351 180.88172296 -100.63065351 180.88172296 -101 178 C-102.82945888 175.77394514 -104.79028372 174.3123132 -107.10546875 172.609375 C-109 171 -109 171 -110.1875 167.5 C-109.9679025 163.40084669 -108.77228595 160.68090159 -107 157 C-106.15849559 153.65828575 -105.92399741 150.72856643 -106.11328125 147.296875 C-106.14357422 146.39710938 -106.17386719 145.49734375 -106.20507812 144.5703125 C-106.27494289 142.73604491 -106.36501181 140.90239753 -106.47851562 139.0703125 C-106.64386091 132.72462869 -105.39127803 127.8738861 -103.1171875 122.05078125 C-99.364418 112.32056421 -98.56403488 102.76984957 -97.8125 92.4375 C-97.58353316 89.63723159 -97.34662707 86.83770734 -97.10917664 84.03814697 C-96.95421955 82.20612552 -96.80176593 80.37389043 -96.65193176 78.54144287 C-96.07380164 71.53923623 -95.2676496 64.58605023 -94.3125 57.625 C-93.34489427 50.34232511 -92.60921898 43.08591786 -92.1875 35.75 C-92.10786011 34.50597412 -92.10786011 34.50597412 -92.02661133 33.23681641 C-91.84293644 29.32309655 -91.70291991 26.29928105 -94 23 C-92.68 22.67 -91.36 22.34 -90 22 C-90 20.68 -90 19.36 -90 18 C-88.02 17.67 -86.04 17.34 -84 17 C-83.34 18.65 -82.68 20.3 -82 22 C-81.01 22 -80.02 22 -79 22 C-79.20810303 22.82000488 -79.41620605 23.64000977 -79.63061523 24.48486328 C-80.0813586 28.77422414 -79.1456635 32.18847892 -77.91015625 36.2421875 C-77.57509315 37.39474533 -77.57509315 37.39474533 -77.23326111 38.57058716 C-76.52144455 41.0090309 -75.79229088 43.44188249 -75.0625 45.875 C-74.57501581 47.5335148 -74.0886751 49.19236617 -73.60351562 50.8515625 C-72.415547 54.9050578 -71.21200947 58.95363111 -70 63 C-68.37367971 58.71080362 -66.763117 54.44197441 -65.39453125 50.0625 C-65.13349609 49.23105469 -64.87246094 48.39960937 -64.60351562 47.54296875 C-64.34248047 46.70378906 -64.08144531 45.86460938 -63.8125 45 C-63.53986328 44.12988281 -63.26722656 43.25976562 -62.98632812 42.36328125 C-62.32222219 40.24280267 -61.66015226 38.12171208 -61 36 C-60.01 36 -59.02 36 -58 36 C-56.02 42.6 -54.04 49.2 -52 56 C-50.515 45.11 -50.515 45.11 -49 34 C-47.02 33.505 -47.02 33.505 -45 33 C-42.88071714 38.0714534 -40.76283102 43.14348691 -38.64624023 48.21606445 C-37.92592161 49.94181093 -37.20522077 51.66739792 -36.48413086 53.39282227 C-35.4480511 55.87214046 -34.41334472 58.3520279 -33.37890625 60.83203125 C-33.05596085 61.60400345 -32.73301544 62.37597565 -32.40028381 63.17134094 C-31.18217788 66.09461133 -30.00185454 68.99443638 -29 72 C-27.35 68.7 -25.7 65.4 -24 62 C-20 63 -20 63 -18.75 65.0625 C-18.5025 65.701875 -18.255 66.34125 -18 67 C-15.67076205 58.5944863 -15.67076205 58.5944863 -13.35571289 50.18505859 C-12.98716599 48.84211579 -12.61859478 47.49917966 -12.25 46.15625 C-12.0640477 45.47857574 -11.8780954 44.80090149 -11.68650818 44.10269165 C-10.44036369 39.57177689 -9.16405617 35.05018848 -7.875 30.53125 C-7.22899626 28.22921448 -6.58315538 25.92713325 -5.9375 23.625 C-5.47138306 22.02422607 -5.47138306 22.02422607 -4.99584961 20.39111328 C-3.44768491 14.81234325 -2.60407277 10.66347621 -4 5 C-3.01 5 -2.02 5 -1 5 C-0.67 3.35 -0.34 1.7 0 0 Z M1 7 C1 9.31 1 11.62 1 14 C1.99 14.33 2.98 14.66 4 15 C4 12.36 4 9.72 4 7 C3.01 7 2.02 7 1 7 Z M0 15 C-0.19378738 15.74946396 -0.38757477 16.49892792 -0.5872345 17.27110291 C-2.41309426 24.32320268 -4.25111496 31.37196373 -6.10298634 38.41727352 C-7.0546905 42.03972392 -8.00159282 45.66329125 -8.93774414 49.28979492 C-9.84085339 52.78758131 -10.75628271 56.28192473 -11.68045616 59.77420235 C-12.0313744 61.10912849 -12.377788 62.44524696 -12.71967506 63.78251457 C-13.19817558 65.65096729 -13.69400594 67.51495631 -14.19067383 69.37866211 C-14.46825027 70.44233505 -14.74582672 71.506008 -15.03181458 72.60191345 C-15.35131577 73.39328201 -15.67081696 74.18465057 -16 75 C-17.485 75.495 -17.485 75.495 -19 76 C-19.99 72.535 -19.99 72.535 -21 69 C-21.66 69 -22.32 69 -23 69 C-23.67119549 70.4562545 -24.33681807 71.91507867 -25 73.375 C-25.556875 74.59316406 -25.556875 74.59316406 -26.125 75.8359375 C-27.12495013 77.91998433 -27.12495013 77.91998433 -27 80 C-30 79 -30 79 -30.9831543 77.32592773 C-31.3994812 76.26547241 -31.3994812 76.26547241 -31.82421875 75.18359375 C-32.13037109 74.41982422 -32.43652344 73.65605469 -32.75195312 72.86914062 C-33.06068359 72.06669922 -33.36941406 71.26425781 -33.6875 70.4375 C-34.00783203 69.63119141 -34.32816406 68.82488281 -34.65820312 67.99414062 C-35.44877255 66.00001775 -36.225685 64.00049052 -37 62 C-38.21205531 65.63616593 -37.66898648 66.58869753 -36.34765625 70.10546875 C-35.98349609 71.08837891 -35.61933594 72.07128906 -35.24414062 73.08398438 C-34.85419922 74.10814453 -34.46425781 75.13230469 -34.0625 76.1875 C-33.67642578 77.22326172 -33.29035156 78.25902344 -32.89257812 79.32617188 C-31.93657556 81.88731454 -30.97210743 84.44493599 -30 87 C-26.83727591 85.66679329 -26.83727591 85.66679329 -24.953125 82.90625 C-24.72109375 82.1121875 -24.4890625 81.318125 -24.25 80.5 C-24.00765625 79.7059375 -23.7653125 78.911875 -23.515625 78.09375 C-22.92029195 76.03572144 -22.92029195 76.03572144 -23 74 C-22.34 74 -21.68 74 -21 74 C-20.34 76.97 -19.68 79.94 -19 83 C-17.68 83.33 -16.36 83.66 -15 84 C-10.82655382 75.76489638 -8.96241142 67.19789114 -7 58.25 C-6.65014191 56.68213863 -6.29996088 55.1143493 -5.94946289 53.54663086 C-4.02787369 44.90359943 -2.15265658 36.24904027 -0.4375 27.5625 C-0.26927734 26.73073242 -0.10105469 25.89896484 0.07226562 25.04199219 C0.7701989 21.34231421 1.0833261 18.60162346 0 15 Z M4 16 C4.5459913 22.678093 5.50142431 29.12733539 6.92578125 35.671875 C7.20907539 36.99919647 7.20907539 36.99919647 7.49809265 38.35333252 C7.89637572 40.21268971 8.2973545 42.07147136 8.70092773 43.9296875 C9.30763857 46.72758112 9.90345896 49.52763316 10.49804688 52.328125 C12.9159381 69.37703841 12.9159381 69.37703841 20 84 C21.98 83.505 21.98 83.505 24 83 C24.66 80.03 25.32 77.06 26 74 C26.66 74 27.32 74 28 74 C28.12117188 74.68707031 28.24234375 75.37414062 28.3671875 76.08203125 C28.53476562 76.98308594 28.70234375 77.88414063 28.875 78.8125 C29.11863281 80.15248047 29.11863281 80.15248047 29.3671875 81.51953125 C29.91188449 84.22727846 29.91188449 84.22727846 32 87 C32.99 87 33.98 87 35 87 C36.36895546 83.23437016 37.71759069 79.46177806 39.0625 75.6875 C39.45244141 74.61564453 39.84238281 73.54378906 40.24414062 72.43945312 C40.60830078 71.41142578 40.97246094 70.38339844 41.34765625 69.32421875 C41.68804932 68.37635498 42.02844238 67.42849121 42.37915039 66.4519043 C43.26267616 63.88899365 43.26267616 63.88899365 42 61 C40.82905995 63.7899439 39.66309073 66.58178597 38.5 69.375 C38.16613281 70.1690625 37.83226562 70.963125 37.48828125 71.78125 C37.17246094 72.54179688 36.85664063 73.30234375 36.53125 74.0859375 C36.23798828 74.7876709 35.94472656 75.4894043 35.64257812 76.21240234 C34.88724219 77.99708561 34.88724219 77.99708561 35 80 C32 79 32 79 30.83203125 76.71484375 C30.49558594 75.79832031 30.15914062 74.88179687 29.8125 73.9375 C29.46832031 73.01839844 29.12414062 72.09929687 28.76953125 71.15234375 C28.51558594 70.44207031 28.26164062 69.73179688 28 69 C27.34 69 26.68 69 26 69 C25.01 70.98 24.02 72.96 23 75 C22.34 75 21.68 75 21 75 C15.72 55.53 10.44 36.06 5 16 C4.67 16 4.34 16 4 16 Z M-89 23 C-88.67 29.27 -88.34 35.54 -88 42 C-87.67 42 -87.34 42 -87 42 C-87 39.03 -87 36.06 -87 33 C-86.34 33 -85.68 33 -85 33 C-84.85522217 33.6197168 -84.71044434 34.23943359 -84.5612793 34.87792969 C-82.01123703 45.43988544 -78.88629296 55.83130815 -75.8125 66.25 C-75.24782591 68.17050796 -74.68337104 70.09108039 -74.11914062 72.01171875 C-72.74861943 76.67522612 -71.37513631 81.33785151 -70 86 C-68.19836207 82.55411716 -67.20483131 79.2956727 -66.3125 75.5 C-65.90451172 73.81390625 -65.90451172 73.81390625 -65.48828125 72.09375 C-64.76626356 68.82763959 -64.76626356 68.82763959 -66 65 C-66.66 67.97 -67.32 70.94 -68 74 C-69.485 73.505 -69.485 73.505 -71 73 C-71.85429382 71.19828796 -71.85429382 71.19828796 -72.53393555 68.8190918 C-72.79397873 67.93114426 -73.05402191 67.04319672 -73.32194519 66.12834167 C-73.59082047 65.16173111 -73.85969574 64.19512054 -74.13671875 63.19921875 C-74.42102249 62.21129837 -74.70532623 61.22337799 -74.99824524 60.20552063 C-75.59822543 58.11142981 -76.19214721 56.01559528 -76.78051758 53.91821289 C-77.68183079 50.707694 -78.60191122 47.50303301 -79.52539062 44.29882812 C-80.10528346 42.26594324 -80.68409532 40.23274963 -81.26171875 38.19921875 C-81.6741407 36.75841194 -81.6741407 36.75841194 -82.09489441 35.28849792 C-82.34548111 34.3910939 -82.59606781 33.49368988 -82.85424805 32.5690918 C-83.18709053 31.38780952 -83.18709053 31.38780952 -83.5266571 30.18266296 C-84 28 -84 28 -84 24 C-85.65 23.67 -87.3 23.34 -89 23 Z M92 34 C92 37.96 92 41.92 92 46 C92.33 46 92.66 46 93 46 C93 42.04 93 38.08 93 34 C92.67 34 92.34 34 92 34 Z M-89 42 C-89.07516846 42.67651611 -89.15033691 43.35303223 -89.2277832 44.05004883 C-89.45660649 46.10945837 -89.68544962 48.1688657 -89.91430664 50.22827148 C-90.18316654 52.6483403 -90.45188044 55.06842534 -90.72045898 57.48852539 C-91.40925037 63.69325102 -92.1000493 69.89773365 -92.796875 76.1015625 C-92.92392822 77.23722656 -93.05098145 78.37289062 -93.18188477 79.54296875 C-93.4356526 81.80620668 -93.69134977 84.06922912 -93.94897461 86.33203125 C-94.52354014 91.43396378 -95.06177881 96.52923688 -95.45703125 101.6484375 C-96.17966903 110.76583006 -97.39985184 118.65601799 -100.87890625 127.15234375 C-102.59841051 131.52000439 -103.3146812 134.48357819 -102 139 C-101.36844534 147.23958522 -101.96859907 156.00974817 -105.75 163.4375 C-107.26984777 165.87288636 -107.26984777 165.87288636 -106.5 168.1875 C-104.62303712 170.45549681 -102.58979037 171.63695244 -100 173 C-100.391875 171.7625 -100.78375 170.525 -101.1875 169.25 C-101.85546875 167.140625 -101.85546875 167.140625 -102 165 C-101.02499165 163.64828387 -100.02187333 162.31664448 -99 161 C-97.12958464 154.15848073 -96.94982054 147.29649684 -97.1875 140.25 C-97.28472022 134.40761484 -96.51677497 129.80097766 -94.59765625 124.26953125 C-91.46166821 114.42765812 -90.81700596 104.69765297 -90.25 94.4375 C-90.13849365 92.67501702 -90.02521698 90.91264513 -89.91015625 89.15039062 C-89.68920257 85.71918753 -89.48007218 82.28763466 -89.28295898 78.85498047 C-89.10339638 75.72796339 -88.91168653 72.60228415 -88.70336914 69.47705078 C-88.24856248 62.64147795 -87.87631877 55.85229729 -87.9375 49 C-87.94201172 48.3090625 -87.94652344 47.618125 -87.95117188 46.90625 C-87.96252922 45.27079178 -87.98042763 43.63538054 -88 42 C-88.33 42 -88.66 42 -89 42 Z M-46 42 C-46 42.99 -46 43.98 -46 45 C-45.34 44.67 -44.68 44.34 -44 44 C-44.66 43.34 -45.32 42.68 -46 42 Z M50 42 C49.67 42.99 49.34 43.98 49 45 C49.66 45 50.32 45 51 45 C50.67 44.01 50.34 43.02 50 42 Z M-60 45 C-59 48 -59 48 -59 48 Z M-47 45 C-47.08040527 45.72179443 -47.16081055 46.44358887 -47.24365234 47.18725586 C-47.61122305 50.43850001 -47.9929139 53.68793116 -48.375 56.9375 C-48.50132812 58.07380859 -48.62765625 59.21011719 -48.7578125 60.38085938 C-48.88671875 61.46044922 -49.015625 62.54003906 -49.1484375 63.65234375 C-49.32125244 65.15269165 -49.32125244 65.15269165 -49.49755859 66.68334961 C-49.74626709 67.83009155 -49.74626709 67.83009155 -50 69 C-50.66 69.33 -51.32 69.66 -52 70 C-52.66 68.02 -53.32 66.04 -54 64 C-54.33 64 -54.66 64 -55 64 C-54.63752699 69.53708766 -53.86412018 74.64868685 -52.375 80 C-50.49765308 87.73722103 -51.11939008 94.98332115 -51.81933594 102.828125 C-51.98674817 104.84069146 -52.09365136 106.85804298 -52.1953125 108.875 C-52.51933989 115.29919529 -53.36245186 121.00092505 -55.25 127.14453125 C-56.12630554 130.48088204 -56.52994192 133.76328435 -56.9375 137.1875 C-57.56630871 142.11585548 -58.40847097 145.83152998 -61.1953125 149.9609375 C-63.61919572 156.10301051 -61.84381008 160.88171798 -59.375 166.6875 C-58.26447251 169.13330459 -57.14073634 171.56859834 -56 174 C-55.42049723 175.26369201 -54.84235946 176.52801092 -54.265625 177.79296875 C-52.85702973 180.86840175 -51.43492701 183.93678703 -50 187 C-48.78204459 183.34613378 -49.31987669 182.61698736 -50.8359375 179.18359375 C-51.24070312 178.25482422 -51.64546875 177.32605469 -52.0625 176.36914062 C-52.7121875 174.91797852 -52.7121875 174.91797852 -53.375 173.4375 C-53.80039063 172.46619141 -54.22578125 171.49488281 -54.6640625 170.49414062 C-56.75342998 165.71043685 -56.75342998 165.71043685 -59 161 C-59.23828125 158.72265625 -59.23828125 158.72265625 -59.3125 156.0625 C-59.34988281 155.18722656 -59.38726562 154.31195313 -59.42578125 153.41015625 C-59.28527344 152.61480469 -59.14476562 151.81945312 -59 151 C-58.05060547 150.40445313 -58.05060547 150.40445313 -57.08203125 149.796875 C-53.60136855 146.79292595 -53.86548076 142.58610626 -53.375 138.1875 C-53.15870858 136.40953304 -52.93746893 134.63216005 -52.7109375 132.85546875 C-52.62118652 132.06809326 -52.53143555 131.28071777 -52.43896484 130.46948242 C-52 128 -52 128 -51.00970459 125.25598145 C-49.96197576 121.87738373 -49.61436247 118.96057715 -49.40576172 115.43481445 C-49.32582977 114.14940262 -49.24589783 112.86399078 -49.1635437 111.53962708 C-49.08532454 110.14752678 -49.0073794 108.75541107 -48.9296875 107.36328125 C-48.84348368 105.91843524 -48.75665038 104.47362667 -48.66921997 103.02885437 C-48.48785231 100.00396229 -48.31186816 96.97882334 -48.14013672 93.95336914 C-47.92156209 90.10461225 -47.69311012 86.25652723 -47.46098137 82.40856647 C-47.28146128 79.42388449 -47.10555158 76.43899863 -46.93085098 73.45403099 C-46.84781453 72.03683635 -46.76410013 70.61968125 -46.67965317 69.20256996 C-46.20195927 61.12542272 -45.87747485 53.09188068 -46 45 C-46.33 45 -46.66 45 -47 45 Z M64 45 C65 48 65 48 65 48 Z M93 46 C92.77668343 58.29143416 93.37178393 70.4753469 94.171875 82.73828125 C94.37598034 85.89013864 94.56730197 89.04260745 94.7578125 92.1953125 C94.88725398 94.23181972 95.01743617 96.26828002 95.1484375 98.3046875 C95.20373627 99.2309494 95.25903503 100.1572113 95.31600952 101.11154175 C95.83268182 108.7746022 96.86088845 116.19899905 99.58984375 123.41015625 C101.43975323 128.70408324 101.48537538 133.87350934 101.5625 139.4375 C101.49299969 152.30199629 101.49299969 152.30199629 106 164 C106 167.37274506 105.99078327 169.92196025 103.625 172.49609375 C102.12212245 173.71356908 100.56279751 174.86046015 99 176 C97.28146518 179.43706963 97.73227509 182.97777763 98.6875 186.625 C99 189 99 189 97.5625 191.3125 C97.046875 191.869375 96.53125 192.42625 96 193 C96.33 193.33 96.66 193.66 97 194 C96.60231455 199.07048951 95.24688806 202.50622387 93 207 C92.65507524 208.49287748 92.34456394 209.99398002 92.0625 211.5 C91.18832055 215.84885912 89.76732078 218.54084903 87 222 C81.34849872 224.82575064 72.69732846 223.47147605 66.8125 221.75 C61.80265949 220.03069513 56.88410367 218.04716686 52 216 C42.30371156 226.23497113 40.54161397 239.89109997 40.82421875 253.515625 C41.55076917 267.91746897 46.66436521 276.29817476 56 287 C56 287.66 56 288.32 56 289 C54.68 289.33 53.36 289.66 52 290 C54.97725683 290.77895137 57.95597945 291.55013172 60.9375 292.3125 C61.83960205 292.54324219 62.7417041 292.77398437 63.67114258 293.01171875 C69.48551933 294.46493024 75.2664646 295.59289067 81.1875 296.5 C88.84452496 297.7360008 95.31813019 299.3429048 100.0625 305.8125 C103.51650452 317.55611537 98.44863333 333.33027228 93.62109375 344.11328125 C89.91116717 350.71963243 85.11541851 356.96365303 79.69140625 362.25 C77.76834441 363.83404822 77.76834441 363.83404822 78 366 C77.40566162 366.26385498 76.81132324 366.52770996 76.19897461 366.79956055 C73.91301329 368.0474868 72.57220266 369.30096276 70.81640625 371.20703125 C66.88360872 375.25491463 62.52952017 378.42982129 57.9375 381.6875 C34.33313875 398.77534784 8.86510628 420.68275988 3.5 450.9453125 C3.335 451.62335938 3.17 452.30140625 3 453 C2.34 453.33 1.68 453.66 1 454 C0.979375 452.845 0.95875 451.69 0.9375 450.5 C-1.64393132 427.97435959 -20.42496495 407.80116622 -37 394 C-39.75867249 391.80941404 -42.56028447 389.68037629 -45.375 387.5625 C-46.87424577 386.4238981 -48.37294661 385.28457831 -49.87109375 384.14453125 C-50.58378418 383.6026416 -51.29647461 383.06075195 -52.03076172 382.50244141 C-74.5450061 365.32507221 -91.47028808 347.68817548 -96 319 C-96.50893698 313.99837794 -96.68574064 309.79054499 -94.875 305.0625 C-89.22156519 298.84372171 -83.37544944 298.01117343 -75.31933594 296.46679688 C-70.56731777 295.51039069 -65.84900801 294.3973651 -61.125 293.3125 C-59.19013132 292.87097476 -57.2552376 292.42955919 -55.3203125 291.98828125 C-53.88018029 291.65897678 -52.44006479 291.32959918 -51 291 C-51.66 290.67 -52.32 290.34 -53 290 C-52.65743164 289.56768066 -52.31486328 289.13536133 -51.96191406 288.68994141 C-40.35445063 273.93568759 -34.89221621 262.54305876 -36.25390625 243.4375 C-37.58711635 233.44442971 -39.69478634 223.30521366 -47 216 C-51.64877727 217.46803493 -56.13026938 219.23912989 -60.6328125 221.09765625 C-67.24583624 223.61846233 -73.99041069 223.79824505 -81 223 C-86.46088511 219.39581583 -87.19973444 213.51031885 -88.57080078 207.38256836 C-89.44874453 203.52206822 -90.58125917 201.08790256 -93 198 C-92.71325582 195.99279077 -92.38133299 193.9914056 -92 192 C-92.66 191.01 -93.32 190.02 -94 189 C-93.87109375 186.6953125 -93.87109375 186.6953125 -93.4375 184.125 C-93.01592188 180.68713079 -92.90889981 179.23494259 -94.1875 175.9375 C-96.1457767 173.84416973 -97.18202494 173.29151466 -100 173 C-99.34 173.99 -98.68 174.98 -98 176 C-98.10287544 178.84622038 -98.5121329 181.58679692 -98.90625 184.40625 C-99.26165487 187.24060978 -99.26165487 187.24060978 -97 190 C-97.03156262 191.95688242 -97.06582377 193.91634446 -97.22265625 195.8671875 C-97.14137172 198.14390848 -97.14137172 198.14390848 -95.578125 200.296875 C-93.62133797 203.64859933 -93.25825257 206.54668685 -92.6875 210.375 C-91.63198215 216.45416454 -90.22154029 221.30642196 -85 225 C-77.86503959 228.67406573 -68.0974562 228.08089628 -60.4609375 226.06640625 C-58.47225762 225.35334361 -56.49855121 224.59557243 -54.55078125 223.77734375 C-51.54965121 222.86275741 -49.94692835 222.96108289 -47 224 C-40.26561436 233.4281399 -40.05001129 243.66439345 -41.82275391 254.80102539 C-43.70293866 265.4919019 -46.53118894 276.6006945 -55 284 C-60.40234696 287.36782507 -66.10569958 288.99741005 -72.25 290.4375 C-81.87468085 292.83852582 -91.44071666 295.25201964 -99 302 C-103.77070839 310.38986648 -103.0303794 321.33904649 -101.34375 330.60546875 C-97.82774751 343.29035706 -89.86422494 352.79799616 -81.34033203 362.47607422 C-80.12155588 363.86179384 -78.91736045 365.26030348 -77.71484375 366.66015625 C-69.84253143 375.67545402 -61.01896575 383.53261797 -51.6171875 390.921875 C-26.03387443 411.23578926 -6.9541813 430.75038767 2 463 C2.33 463 2.66 463 3 463 C3.268125 461.9584375 3.53625 460.916875 3.8125 459.84375 C10.79110158 433.87480065 25.56768066 415.56104683 46.48828125 399.0078125 C48.90271418 397.07776814 51.20589156 395.07078815 53.5 393 C56.7157226 390.10470527 60.00822857 387.34321489 63.375 384.625 C79.52030797 371.48715136 98.11633816 354.27613266 105 334 C105.433125 332.7625 105.86625 331.525 106.3125 330.25 C108.22791249 321.33596494 108.3626912 311.1236319 104 303 C100.48532169 298.96717195 97.34079336 296.93787058 92.375 295 C91.73618896 294.74927734 91.09737793 294.49855469 90.43920898 294.24023438 C85.08003559 292.21814626 79.62210852 290.84852388 74.0625 289.5 C64.79630716 287.19281758 59.14513712 284.58956538 53.75 276.4375 C46.9375906 264.16773811 43.5466852 248.33647802 46.82421875 234.52734375 C48.201573 230.31335658 49.53422616 226.69866076 52 223 C56.09047823 223.4446172 59.62035978 224.18710915 63.5 225.5625 C71.06086978 227.91296947 80.65245347 228.65438177 88.1875 225.8125 C92.48407004 223.04359931 94.99647851 219.64751295 97 215 C97.55715236 211.99963137 97.94584904 208.99838262 98.33984375 205.97265625 C99.04643303 202.79091397 100.31685287 200.75963147 102 198 C102.06402218 196.01531257 102.12095494 194.02699916 102.0390625 192.04296875 C101.98053675 188.98207217 102.56005213 186.02464157 103 183 C102.7834375 181.2675 102.7834375 181.2675 102.5625 179.5 C103.08158932 175.34728548 103.84838618 174.86640245 106.9375 172.25 C107.66839844 171.69828125 108.39929688 171.1465625 109.15234375 170.578125 C111.27269496 169.04189872 111.27269496 169.04189872 112 166 C111.27712574 163.87779387 111.27712574 163.87779387 110.125 161.6875 C107.59108086 156.61080185 106.8991744 152.09069637 107.11328125 146.453125 C107.14357422 145.60621094 107.17386719 144.75929688 107.20507812 143.88671875 C107.27482397 142.17477535 107.36481073 140.46349272 107.47851562 138.75390625 C107.65344719 132.42800259 106.25871517 127.44413529 104.1171875 121.5859375 C100.5149261 111.61144617 99.58178494 101.89390649 98.8125 91.375 C98.58454048 88.60251441 98.34865059 85.83077491 98.11233521 83.05899048 C97.95787508 81.24163555 97.80587975 79.4240693 97.65646362 77.60629272 C97.04039914 70.16885662 96.21769533 62.77570279 95.25 55.375 C95.12214111 54.39321777 94.99428223 53.41143555 94.86254883 52.39990234 C94.58066663 50.2658498 94.29143428 48.13276907 94 46 C93.67 46 93.34 46 93 46 Z M51 47 C50.88488115 55.95803845 51.23393287 64.84425191 51.76953125 73.78515625 C51.80991705 74.46650572 51.85030285 75.14785519 51.89191246 75.84985161 C52.10532196 79.44841233 52.32290622 83.04669054 52.54418945 86.64477539 C52.76967783 90.32415533 52.98095937 94.00420761 53.18900013 97.68460941 C53.35364307 100.55156075 53.52877744 103.41780545 53.70664024 106.28396416 C53.82853519 108.29011789 53.93955239 110.2969233 54.05024719 112.3037262 C54.48463107 119.05838317 55.3205846 125.24373669 57.32720947 131.71862793 C58.60077118 136.03716095 58.8428505 140.46380682 59.27734375 144.93359375 C59.72201207 148.1000827 59.72201207 148.1000827 62.06640625 149.91015625 C64 152 64 152 64.53515625 155.57421875 C64.24858169 161.1193722 61.76918456 165.861568 59.4375 170.8125 C58.57341868 172.66919315 57.71752161 174.52972405 56.87109375 176.39453125 C56.48880615 177.20768799 56.10651855 178.02084473 55.71264648 178.85864258 C54.71462749 181.14324379 54.71462749 181.14324379 56 184 C57.66755689 180.53084984 59.30489256 177.04821712 60.9375 173.5625 C61.40607422 172.58861328 61.87464844 171.61472656 62.35742188 170.61132812 C65.37969278 164.11018423 68.31779348 157.60534141 66.2578125 150.40625 C65.88398438 149.7771875 65.51015625 149.148125 65.125 148.5 C64.75632812 147.8503125 64.38765625 147.200625 64.0078125 146.53125 C63.0864552 145.01915254 63.0864552 145.01915254 62 144 C61.75143156 140.86527576 61.61585237 137.73119691 61.4765625 134.58984375 C61.14533744 130.92231663 61.14533744 130.92231663 59.53515625 127.44140625 C57.16967999 121.5412042 57.17050532 115.2798732 56.8125 109 C56.73064453 107.76765625 56.64878906 106.5353125 56.56445312 105.265625 C56.34604555 101.84451809 56.16138606 98.42422607 56 95 C55.96052246 94.23582764 55.92104492 93.47165527 55.88037109 92.68432617 C55.72711912 87.35182397 56.79580248 82.46695359 58 77.3125 C59.71470048 70.23884331 59.71470048 70.23884331 60 63 C59.566875 63.8971875 59.566875 63.8971875 59.125 64.8125 C58 67 58 67 56 70 C55.34 70 54.68 70 54 70 C53.93941406 69.09378906 53.87882813 68.18757813 53.81640625 67.25390625 C53.35047577 60.47999388 52.81358547 53.74113678 52 47 C51.67 47 51.34 47 51 47 Z M-59 49 C-58 51 -58 51 -58 51 Z M62 51 C63 54 63 54 63 54 Z M-58 52 C-57 55 -57 55 -57 55 Z M66 52 C67 54 67 54 67 54 Z M-63 54 C-62 56 -62 56 -62 56 Z M-41 54 C-40 56 -40 56 -40 56 Z M61 55 C62 59 62 59 62 59 Z M67 55 C68 57 68 57 68 57 Z M-57 56 C-56 60 -56 60 -56 60 Z M44 56 C45 58 45 58 45 58 Z M-40 57 C-39 59 -39 59 -39 59 Z M-64 58 C-63 60 -63 60 -63 60 Z M-39 59 C-38 62 -38 62 -38 62 Z M43 59 C44 61 44 61 44 61 Z M60 59 C61 63 61 63 61 63 Z M68 59 C69 62 69 62 69 62 Z M-56 60 C-55 64 -55 64 -55 64 Z M-65 61 C-64 65 -64 65 -64 65 Z M69 62 C70 66 70 66 70 66 Z M54 184 C55 186 55 186 55 186 Z M53 186 C54 188 54 188 54 188 Z M-49 187 C-48 189 -48 189 -48 189 Z M52 188 C53 191 53 191 53 191 Z M-48 189 C-47 191 -47 191 -47 191 Z M-47 191 C-46 194 -46 194 -46 194 Z M51 191 C52 193 52 193 52 193 Z M50 193 C51 195 51 195 51 195 Z M-46 194 C-45 196 -45 196 -45 196 Z M49 195 C50 197 50 197 50 197 Z M-45 196 C-44 198 -44 198 -44 198 Z M48 197 C49 199 49 199 49 199 Z M-44 198 C-43 200 -43 200 -43 200 Z M47 199 C48 201 48 201 48 201 Z M-43 200 C-42 202 -42 202 -42 202 Z M-42 202 C-41 204 -41 204 -41 204 Z M45 203 C44.67 204.32 44.34 205.64 44 207 C44.66 206.67 45.32 206.34 46 206 C45.67 205.01 45.34 204.02 45 203 Z M-41 204 C-40 206 -40 206 -40 206 Z M-40 206 C-39 208 -39 208 -39 208 Z M43 207 C44 209 44 209 44 209 Z M-39 208 C-38.34 209.65 -37.68 211.3 -37 213 C-36.67 212.34 -36.34 211.68 -36 211 C-36.99 210.01 -37.98 209.02 -39 208 Z M42 209 C43 211 43 211 43 211 Z M41 211 C39.37145746 213.2475089 37.74709026 215.49784162 36.125 217.75 C35.66480469 218.38421875 35.20460938 219.0184375 34.73046875 219.671875 C32.56337959 222.68695557 30.50142178 225.58297113 29 229 C34.88442739 224.83784404 38.75843083 219.43135609 42 213 C41.67 212.34 41.34 211.68 41 211 Z M-36 213 C-34.64002446 219.04433574 -31.14348206 222.63494136 -27 227 C-27 222.98165669 -28.56001634 221.50894113 -30.9375 218.3125 C-31.66839844 217.31863281 -32.39929688 216.32476562 -33.15234375 215.30078125 C-33.76207031 214.54152344 -34.37179688 213.78226563 -35 213 C-35.33 213 -35.66 213 -36 213 Z M-21 232 C-20.67 240.25 -20.34 248.5 -20 257 C-19.67 257 -19.34 257 -19 257 C-19 249.08 -19 241.16 -19 233 C-19.66 232.67 -20.32 232.34 -21 232 Z M25 232 C23.71573103 233.05950052 23.71573103 233.05950052 23.88647461 235.50024414 C23.89171143 236.58426514 23.89694824 237.66828613 23.90234375 238.78515625 C23.90556641 239.95498047 23.90878906 241.12480469 23.91210938 242.33007812 C23.92048828 243.56177734 23.92886719 244.79347656 23.9375 246.0625 C23.94201172 247.29806641 23.94652344 248.53363281 23.95117188 249.80664062 C23.96300392 252.87114117 23.97948827 255.93554721 24 259 C24.33 259 24.66 259 25 259 C25.33 250.09 25.66 241.18 26 232 C25.67 232 25.34 232 25 232 Z M-21 258 C-20 262 -20 262 -20 262 Z M25 260 C26 263 26 263 26 263 Z M-22 263 C-21 266 -21 266 -21 266 Z M26 263 C27 266 27 266 27 266 Z M-23 266 C-22 268 -22 268 -22 268 Z M27 266 C28 269 28 269 28 269 Z M-24 268 C-23 270 -23 270 -23 270 Z M28 269 C29 271 29 271 29 271 Z M29 271 C30 273 30 273 30 273 Z M30 273 C31 275 31 275 31 275 Z M-51 289 C-47 290 -47 290 -47 290 Z " fill="#FFFFFF" transform="translate(254,20)"/>
<path d="M0 0 C0 1.65 0 3.3 0 5 C-2.375 5.625 -2.375 5.625 -5 6 C-5.66 5.34 -6.32 4.68 -7 4 C-7 2.68 -7 1.36 -7 0 C-4.3333581 -1.33332095 -2.83319697 -0.67102033 0 0 Z " fill="#FFFFFF" transform="translate(348,38)"/>
</svg>
